<mxfile host="app.diagrams.net" modified="2023-05-07T18:34:35.137Z" agent="Mozilla/5.0 (X11; Ubuntu; Linux x86_64; rv:102.0) Gecko/20100101 Firefox/102.0" etag="sMvDvzC3xlHHw6IJBbwS" version="21.2.9" type="device">
  <diagram name="Page-1" id="c7558073-3199-34d8-9f00-42111426c3f3">
    <mxGraphModel dx="1936" dy="1067" grid="1" gridSize="10" guides="1" tooltips="1" connect="1" arrows="1" fold="1" page="1" pageScale="1" pageWidth="826" pageHeight="1169" background="none" math="0" shadow="0">
      <root>
        <mxCell id="0" />
        <mxCell id="1" parent="0" />
        <mxCell id="3kep1P1xeKZw5jxpyF7z-107" value="" style="edgeStyle=orthogonalEdgeStyle;rounded=0;orthogonalLoop=1;jettySize=auto;html=1;strokeWidth=2;strokeColor=#CC0000;" parent="1" source="2" target="3kep1P1xeKZw5jxpyF7z-106" edge="1">
          <mxGeometry relative="1" as="geometry" />
        </mxCell>
        <mxCell id="3kep1P1xeKZw5jxpyF7z-109" value="" style="edgeStyle=orthogonalEdgeStyle;rounded=0;orthogonalLoop=1;jettySize=auto;html=1;exitX=0;exitY=0.25;exitDx=0;exitDy=0;strokeColor=#CC0000;strokeWidth=2;" parent="1" source="2" target="3kep1P1xeKZw5jxpyF7z-108" edge="1">
          <mxGeometry relative="1" as="geometry" />
        </mxCell>
        <mxCell id="3kep1P1xeKZw5jxpyF7z-111" value="" style="edgeStyle=orthogonalEdgeStyle;rounded=0;orthogonalLoop=1;jettySize=auto;html=1;strokeColor=#CC0000;strokeWidth=2;" parent="1" source="2" target="3kep1P1xeKZw5jxpyF7z-110" edge="1">
          <mxGeometry relative="1" as="geometry">
            <Array as="points">
              <mxPoint x="-295" y="430" />
            </Array>
          </mxGeometry>
        </mxCell>
        <mxCell id="2" value="&lt;p style=&quot;margin: 0px; margin-top: 4px; text-align: center; text-decoration: underline;&quot;&gt;&lt;strong&gt;MAIN&lt;/strong&gt;&lt;/p&gt;&lt;p style=&quot;margin: 0px; margin-top: 4px; text-align: center; text-decoration: underline;&quot;&gt;&lt;strong&gt;(argc, argv, envp)&lt;br&gt;&lt;/strong&gt;&lt;/p&gt;&lt;div align=&quot;left&quot;&gt;&lt;ul&gt;&lt;li&gt;&lt;strong&gt;the_arg(argc, argv);&lt;/strong&gt;&lt;/li&gt;&lt;li&gt;&lt;strong&gt;init_data(&amp;amp;data, envp);&lt;/strong&gt;&lt;/li&gt;&lt;li&gt;&lt;strong&gt;eternal_loop(&amp;amp;data);&lt;/strong&gt;&lt;br&gt;&lt;/li&gt;&lt;/ul&gt;&lt;/div&gt;" style="verticalAlign=middle;align=center;overflow=fill;fontSize=12;fontFamily=Helvetica;html=1;rounded=1;fontStyle=1;strokeWidth=3;fillColor=#E6FFCC;" parent="1" vertex="1">
          <mxGeometry x="-210" y="290" width="190" height="120" as="geometry" />
        </mxCell>
        <mxCell id="3" value="init_envSom&#xa;()&#xa;&#xa;malloc t_envSom &#xa;&#xa;and return back the empty node (t_env).&#xa;" style="align=center;verticalAlign=top;fontStyle=1;strokeWidth=3;fillColor=#FFFFCC;whiteSpace=wrap;" parent="1" vertex="1">
          <mxGeometry x="-770" y="640" width="170" height="120" as="geometry" />
        </mxCell>
        <mxCell id="3kep1P1xeKZw5jxpyF7z-106" value="&lt;p style=&quot;margin: 4px 0px 0px; text-align: center;&quot;&gt;&lt;strong&gt;eternal_loop&lt;/strong&gt;&lt;/p&gt;&lt;p style=&quot;margin: 4px 0px 0px; text-align: center;&quot;&gt;&lt;strong&gt;(*data)&lt;br&gt;&lt;/strong&gt;&lt;/p&gt;&lt;div align=&quot;left&quot;&gt;&lt;ul&gt;&lt;li&gt;&lt;strong&gt;str = &lt;font color=&quot;#009900&quot;&gt;readline(..);&lt;/font&gt;&lt;/strong&gt;&lt;/li&gt;&lt;li&gt;&lt;font color=&quot;#009900&quot;&gt;&lt;strong&gt;add_history(str);&lt;/strong&gt;&lt;/font&gt;&lt;/li&gt;&lt;li&gt;&lt;strong&gt;init_data_cmd(data);&lt;/strong&gt;&lt;/li&gt;&lt;li&gt;&lt;strong&gt;splitOrNot(str, data-&amp;gt;cmd_index);&lt;/strong&gt;&lt;/li&gt;&lt;li&gt;&lt;strong&gt;malloc_all(data);&lt;/strong&gt;&lt;/li&gt;&lt;li&gt;&lt;strong&gt;exec(data-cmdIndex, data-&amp;gt;path_exec, data-&amp;gt;env);&lt;/strong&gt;&lt;/li&gt;&lt;li&gt;&lt;strong&gt;free(str);&lt;/strong&gt;&lt;br&gt;&lt;/li&gt;&lt;/ul&gt;&lt;/div&gt;" style="verticalAlign=middle;align=center;overflow=fill;fontSize=12;fontFamily=Helvetica;html=1;rounded=1;fontStyle=1;strokeWidth=3;fillColor=#E6FFCC;" parent="1" vertex="1">
          <mxGeometry x="70" y="260" width="350" height="180" as="geometry" />
        </mxCell>
        <mxCell id="3kep1P1xeKZw5jxpyF7z-108" value="&lt;p style=&quot;margin: 4px 0px 0px; text-align: center;&quot;&gt;&lt;strong&gt;the_arg&lt;/strong&gt;&lt;/p&gt;&lt;p style=&quot;margin: 4px 0px 0px; text-align: center;&quot;&gt;&lt;strong&gt;(argc, argv)&lt;br&gt;&lt;/strong&gt;&lt;/p&gt;&lt;p style=&quot;margin: 4px 0px 0px; text-align: center;&quot;&gt;&lt;strong&gt;&lt;br&gt;&lt;/strong&gt;&lt;/p&gt;&lt;p style=&quot;margin: 0px; margin-top: 4px; text-align: center; text-decoration: underline;&quot;&gt;&lt;span style=&quot;font-weight: normal;&quot;&gt;Arguments check&lt;/span&gt;&lt;br&gt;&lt;strong&gt;&lt;/strong&gt;&lt;/p&gt;" style="verticalAlign=middle;align=center;overflow=fill;fontSize=12;fontFamily=Helvetica;html=1;rounded=1;fontStyle=1;strokeWidth=3;fillColor=#E6FFCC;" parent="1" vertex="1">
          <mxGeometry x="-640" y="500" width="190" height="120" as="geometry" />
        </mxCell>
        <mxCell id="w5gB6YBrFvxGbigNmxhe-103" style="edgeStyle=orthogonalEdgeStyle;rounded=0;orthogonalLoop=1;jettySize=auto;html=1;exitX=0.25;exitY=1;exitDx=0;exitDy=0;entryX=0.5;entryY=0;entryDx=0;entryDy=0;" parent="1" source="3kep1P1xeKZw5jxpyF7z-110" target="w5gB6YBrFvxGbigNmxhe-88" edge="1">
          <mxGeometry relative="1" as="geometry" />
        </mxCell>
        <mxCell id="w5gB6YBrFvxGbigNmxhe-107" value="" style="edgeStyle=orthogonalEdgeStyle;rounded=0;orthogonalLoop=1;jettySize=auto;html=1;" parent="1" source="3kep1P1xeKZw5jxpyF7z-110" target="w5gB6YBrFvxGbigNmxhe-106" edge="1">
          <mxGeometry relative="1" as="geometry" />
        </mxCell>
        <mxCell id="3kep1P1xeKZw5jxpyF7z-110" value="&lt;p style=&quot;margin: 4px 0px 0px; text-align: center;&quot;&gt;&lt;strong&gt;init_data&lt;/strong&gt;&lt;/p&gt;&lt;p style=&quot;margin: 0px; margin-top: 4px; text-align: center; text-decoration: underline;&quot;&gt;&lt;strong&gt;(*data, **en)&lt;br&gt;&lt;/strong&gt;&lt;/p&gt;&lt;div align=&quot;left&quot;&gt;&lt;ul&gt;&lt;li&gt;&lt;strong&gt;printTitle();&lt;/strong&gt;&lt;/li&gt;&lt;li&gt;&lt;strong&gt;init_envp(en);&lt;/strong&gt;&lt;/li&gt;&lt;li&gt;&lt;strong&gt;signal_handler();&lt;/strong&gt;&lt;/li&gt;&lt;/ul&gt;&lt;/div&gt;" style="verticalAlign=middle;align=center;overflow=fill;fontSize=12;fontFamily=Helvetica;html=1;rounded=1;fontStyle=1;strokeWidth=3;fillColor=#E6FFCC;" parent="1" vertex="1">
          <mxGeometry x="-390" y="500" width="190" height="120" as="geometry" />
        </mxCell>
        <mxCell id="w5gB6YBrFvxGbigNmxhe-92" style="edgeStyle=orthogonalEdgeStyle;rounded=0;orthogonalLoop=1;jettySize=auto;html=1;exitX=0;exitY=0.25;exitDx=0;exitDy=0;entryX=1;entryY=0.5;entryDx=0;entryDy=0;" parent="1" source="w5gB6YBrFvxGbigNmxhe-88" target="3" edge="1">
          <mxGeometry relative="1" as="geometry" />
        </mxCell>
        <mxCell id="w5gB6YBrFvxGbigNmxhe-100" style="edgeStyle=orthogonalEdgeStyle;rounded=0;orthogonalLoop=1;jettySize=auto;html=1;exitX=0;exitY=0.5;exitDx=0;exitDy=0;entryX=1.012;entryY=0.554;entryDx=0;entryDy=0;entryPerimeter=0;" parent="1" source="w5gB6YBrFvxGbigNmxhe-88" target="w5gB6YBrFvxGbigNmxhe-93" edge="1">
          <mxGeometry relative="1" as="geometry">
            <Array as="points">
              <mxPoint x="-598" y="840" />
            </Array>
          </mxGeometry>
        </mxCell>
        <mxCell id="w5gB6YBrFvxGbigNmxhe-102" style="edgeStyle=orthogonalEdgeStyle;rounded=0;orthogonalLoop=1;jettySize=auto;html=1;exitX=0;exitY=0.75;exitDx=0;exitDy=0;entryX=1;entryY=0.5;entryDx=0;entryDy=0;" parent="1" source="w5gB6YBrFvxGbigNmxhe-88" target="w5gB6YBrFvxGbigNmxhe-95" edge="1">
          <mxGeometry relative="1" as="geometry">
            <Array as="points">
              <mxPoint x="-560" y="870" />
              <mxPoint x="-560" y="995" />
            </Array>
          </mxGeometry>
        </mxCell>
        <mxCell id="w5gB6YBrFvxGbigNmxhe-88" value="&lt;p style=&quot;margin: 0px; margin-top: 4px; text-align: center; text-decoration: underline;&quot;&gt;&lt;strong&gt;init_envp&lt;/strong&gt;&lt;/p&gt;&lt;p style=&quot;margin: 0px; margin-top: 4px; text-align: center; text-decoration: underline;&quot;&gt;&lt;strong&gt;(*envp)&lt;/strong&gt;&lt;br&gt;&lt;/p&gt;&lt;div align=&quot;left&quot;&gt;&lt;ul&gt;&lt;li&gt;&lt;strong&gt;init_envSom();&lt;/strong&gt;&lt;/li&gt;&lt;li&gt;&lt;strong&gt;push_env(envp[i], env);&lt;/strong&gt;&lt;/li&gt;&lt;li&gt;change_pwd(env);&lt;br&gt;&lt;/li&gt;&lt;/ul&gt;&lt;/div&gt;" style="verticalAlign=middle;align=center;overflow=fill;fontSize=12;fontFamily=Helvetica;html=1;rounded=1;fontStyle=1;strokeWidth=3;fillColor=#E6FFCC;" parent="1" vertex="1">
          <mxGeometry x="-508" y="780" width="190" height="120" as="geometry" />
        </mxCell>
        <mxCell id="w5gB6YBrFvxGbigNmxhe-93" value="push_env&#xa;(*envp, env)&#xa;&#xa;malloc t_env and save envp in the given node. &#xa;&#xa;Adding the node to the list.&#xa;increment list size.&#xa;" style="align=center;verticalAlign=top;fontStyle=1;strokeWidth=3;fillColor=#FFFFCC;whiteSpace=wrap;" parent="1" vertex="1">
          <mxGeometry x="-770" y="775" width="170" height="130" as="geometry" />
        </mxCell>
        <mxCell id="w5gB6YBrFvxGbigNmxhe-95" value="change_pwd&#xa;(*env)&#xa;&#xa;Searching for &quot;PWD&quot; line in the list and replacing the value with current env path with &#xa;getcwd();&#xa;&#xa;" style="align=center;verticalAlign=top;fontStyle=1;strokeWidth=3;fillColor=#FFFFCC;whiteSpace=wrap;" parent="1" vertex="1">
          <mxGeometry x="-770" y="930" width="170" height="130" as="geometry" />
        </mxCell>
        <mxCell id="w5gB6YBrFvxGbigNmxhe-101" value="change_pwd&#xa;(*env)&#xa;&#xa;Searching for &quot;OLDPWD&quot; in the list and replacing the value with strjoin -ing the received oldpwd.&#xa;adding new node if not exist.&#xa;&#xa;&#xa;" style="align=center;verticalAlign=top;fontStyle=1;strokeWidth=3;fillColor=#FFFFCC;whiteSpace=wrap;" parent="1" vertex="1">
          <mxGeometry x="-760" y="1160" width="170" height="130" as="geometry" />
        </mxCell>
        <mxCell id="w5gB6YBrFvxGbigNmxhe-106" value="&lt;p style=&quot;margin: 4px 0px 0px; text-align: center;&quot;&gt;&lt;strong&gt;signal_handler&lt;/strong&gt;&lt;/p&gt;&lt;p style=&quot;margin: 4px 0px 0px; text-align: center;&quot;&gt;&lt;strong&gt;&lt;font color=&quot;#009900&quot;&gt;signal(..)&lt;/font&gt;&lt;br&gt;&lt;/strong&gt;&lt;/p&gt;&lt;div align=&quot;left&quot;&gt;&lt;ul&gt;&lt;li&gt;&lt;strong&gt;newline();&lt;/strong&gt;&lt;/li&gt;&lt;li&gt;&lt;strong&gt;sigint_handler(sig);&lt;/strong&gt;&lt;/li&gt;&lt;li&gt;&lt;strong&gt;sigquit_handler(sig);&lt;/strong&gt;&lt;/li&gt;&lt;/ul&gt;&lt;/div&gt;" style="verticalAlign=middle;align=center;overflow=fill;fontSize=12;fontFamily=Helvetica;html=1;rounded=1;fontStyle=1;strokeWidth=3;fillColor=#E6FFCC;" parent="1" vertex="1">
          <mxGeometry x="-280" y="700" width="190" height="120" as="geometry" />
        </mxCell>
        <mxCell id="w5gB6YBrFvxGbigNmxhe-109" value="&lt;b&gt;t_env&lt;/b&gt;" style="swimlane;fontStyle=0;childLayout=stackLayout;horizontal=1;startSize=30;horizontalStack=0;resizeParent=1;resizeParentMax=0;resizeLast=0;collapsible=1;marginBottom=0;whiteSpace=wrap;html=1;fillColor=#ffe6cc;strokeColor=#d79b00;" parent="1" vertex="1">
          <mxGeometry x="-530" y="40" width="130" height="120" as="geometry">
            <mxRectangle x="80" y="690" width="60" height="30" as="alternateBounds" />
          </mxGeometry>
        </mxCell>
        <mxCell id="w5gB6YBrFvxGbigNmxhe-110" value="char&lt;span style=&quot;white-space: pre;&quot;&gt; &lt;span style=&quot;white-space: pre;&quot;&gt; &lt;/span&gt;&lt;/span&gt;*name" style="text;strokeColor=#d6b656;fillColor=#fff2cc;align=left;verticalAlign=middle;spacingLeft=4;spacingRight=4;overflow=hidden;points=[[0,0.5],[1,0.5]];portConstraint=eastwest;rotatable=0;whiteSpace=wrap;html=1;" parent="w5gB6YBrFvxGbigNmxhe-109" vertex="1">
          <mxGeometry y="30" width="130" height="30" as="geometry" />
        </mxCell>
        <mxCell id="w5gB6YBrFvxGbigNmxhe-111" value="s_env&lt;span style=&quot;white-space: pre;&quot;&gt; &lt;/span&gt;*next" style="text;strokeColor=#d6b656;fillColor=#fff2cc;align=left;verticalAlign=middle;spacingLeft=4;spacingRight=4;overflow=hidden;points=[[0,0.5],[1,0.5]];portConstraint=eastwest;rotatable=0;whiteSpace=wrap;html=1;" parent="w5gB6YBrFvxGbigNmxhe-109" vertex="1">
          <mxGeometry y="60" width="130" height="30" as="geometry" />
        </mxCell>
        <mxCell id="w5gB6YBrFvxGbigNmxhe-112" value="s_env&lt;span style=&quot;white-space: pre;&quot;&gt; &lt;/span&gt;*back" style="text;strokeColor=#d6b656;fillColor=#fff2cc;align=left;verticalAlign=middle;spacingLeft=4;spacingRight=4;overflow=hidden;points=[[0,0.5],[1,0.5]];portConstraint=eastwest;rotatable=0;whiteSpace=wrap;html=1;" parent="w5gB6YBrFvxGbigNmxhe-109" vertex="1">
          <mxGeometry y="90" width="130" height="30" as="geometry" />
        </mxCell>
        <mxCell id="w5gB6YBrFvxGbigNmxhe-113" value="&lt;b&gt;t_envSom&lt;/b&gt;" style="swimlane;fontStyle=0;childLayout=stackLayout;horizontal=1;startSize=30;horizontalStack=0;resizeParent=1;resizeParentMax=0;resizeLast=0;collapsible=1;marginBottom=0;whiteSpace=wrap;html=1;fillColor=#ffe6cc;strokeColor=#d79b00;" parent="1" vertex="1">
          <mxGeometry x="-380" y="40" width="130" height="120" as="geometry">
            <mxRectangle x="80" y="690" width="60" height="30" as="alternateBounds" />
          </mxGeometry>
        </mxCell>
        <mxCell id="w5gB6YBrFvxGbigNmxhe-114" value="int&lt;span style=&quot;white-space: pre;&quot;&gt; &lt;span style=&quot;white-space: pre;&quot;&gt; &lt;/span&gt;&lt;/span&gt;size" style="text;strokeColor=#d6b656;fillColor=#fff2cc;align=left;verticalAlign=middle;spacingLeft=4;spacingRight=4;overflow=hidden;points=[[0,0.5],[1,0.5]];portConstraint=eastwest;rotatable=0;whiteSpace=wrap;html=1;" parent="w5gB6YBrFvxGbigNmxhe-113" vertex="1">
          <mxGeometry y="30" width="130" height="30" as="geometry" />
        </mxCell>
        <mxCell id="w5gB6YBrFvxGbigNmxhe-115" value="s_env&lt;span style=&quot;white-space: pre;&quot;&gt; &lt;/span&gt;*begin" style="text;strokeColor=#d6b656;fillColor=#fff2cc;align=left;verticalAlign=middle;spacingLeft=4;spacingRight=4;overflow=hidden;points=[[0,0.5],[1,0.5]];portConstraint=eastwest;rotatable=0;whiteSpace=wrap;html=1;" parent="w5gB6YBrFvxGbigNmxhe-113" vertex="1">
          <mxGeometry y="60" width="130" height="30" as="geometry" />
        </mxCell>
        <mxCell id="w5gB6YBrFvxGbigNmxhe-116" value="s_env&lt;span style=&quot;white-space: pre;&quot;&gt; &lt;/span&gt;*end" style="text;strokeColor=#d6b656;fillColor=#fff2cc;align=left;verticalAlign=middle;spacingLeft=4;spacingRight=4;overflow=hidden;points=[[0,0.5],[1,0.5]];portConstraint=eastwest;rotatable=0;whiteSpace=wrap;html=1;" parent="w5gB6YBrFvxGbigNmxhe-113" vertex="1">
          <mxGeometry y="90" width="130" height="30" as="geometry" />
        </mxCell>
        <mxCell id="w5gB6YBrFvxGbigNmxhe-117" value="&lt;b&gt;t_cmdIndex&lt;/b&gt;" style="swimlane;fontStyle=0;childLayout=stackLayout;horizontal=1;startSize=30;horizontalStack=0;resizeParent=1;resizeParentMax=0;resizeLast=0;collapsible=1;marginBottom=0;whiteSpace=wrap;html=1;fillColor=#ffe6cc;strokeColor=#d79b00;" parent="1" vertex="1">
          <mxGeometry x="-230" y="40" width="130" height="150" as="geometry">
            <mxRectangle x="80" y="690" width="60" height="30" as="alternateBounds" />
          </mxGeometry>
        </mxCell>
        <mxCell id="w5gB6YBrFvxGbigNmxhe-118" value="int&lt;span style=&quot;white-space: pre;&quot;&gt; &lt;span style=&quot;white-space: pre;&quot;&gt; &lt;/span&gt;&lt;/span&gt;nb_cmd" style="text;strokeColor=#d6b656;fillColor=#fff2cc;align=left;verticalAlign=middle;spacingLeft=4;spacingRight=4;overflow=hidden;points=[[0,0.5],[1,0.5]];portConstraint=eastwest;rotatable=0;whiteSpace=wrap;html=1;" parent="w5gB6YBrFvxGbigNmxhe-117" vertex="1">
          <mxGeometry y="30" width="130" height="30" as="geometry" />
        </mxCell>
        <mxCell id="w5gB6YBrFvxGbigNmxhe-119" value="int&lt;span style=&quot;white-space: pre;&quot;&gt; &lt;/span&gt;&lt;span style=&quot;white-space: pre;&quot;&gt; &lt;/span&gt;nb_pipe" style="text;strokeColor=#d6b656;fillColor=#fff2cc;align=left;verticalAlign=middle;spacingLeft=4;spacingRight=4;overflow=hidden;points=[[0,0.5],[1,0.5]];portConstraint=eastwest;rotatable=0;whiteSpace=wrap;html=1;" parent="w5gB6YBrFvxGbigNmxhe-117" vertex="1">
          <mxGeometry y="60" width="130" height="30" as="geometry" />
        </mxCell>
        <mxCell id="w5gB6YBrFvxGbigNmxhe-120" value="s_cmd&lt;span style=&quot;white-space: pre;&quot;&gt; &lt;/span&gt;*begin" style="text;strokeColor=#d6b656;fillColor=#fff2cc;align=left;verticalAlign=middle;spacingLeft=4;spacingRight=4;overflow=hidden;points=[[0,0.5],[1,0.5]];portConstraint=eastwest;rotatable=0;whiteSpace=wrap;html=1;" parent="w5gB6YBrFvxGbigNmxhe-117" vertex="1">
          <mxGeometry y="90" width="130" height="30" as="geometry" />
        </mxCell>
        <mxCell id="w5gB6YBrFvxGbigNmxhe-121" value="s_cmd&lt;span style=&quot;white-space: pre;&quot;&gt; &lt;/span&gt;*end" style="text;strokeColor=#d6b656;fillColor=#fff2cc;align=left;verticalAlign=middle;spacingLeft=4;spacingRight=4;overflow=hidden;points=[[0,0.5],[1,0.5]];portConstraint=eastwest;rotatable=0;whiteSpace=wrap;html=1;" parent="w5gB6YBrFvxGbigNmxhe-117" vertex="1">
          <mxGeometry y="120" width="130" height="30" as="geometry" />
        </mxCell>
        <mxCell id="w5gB6YBrFvxGbigNmxhe-122" value="&lt;b&gt;t_cmd&lt;/b&gt;" style="swimlane;fontStyle=0;childLayout=stackLayout;horizontal=1;startSize=30;horizontalStack=0;resizeParent=1;resizeParentMax=0;resizeLast=0;collapsible=1;marginBottom=0;whiteSpace=wrap;html=1;fillColor=#ffe6cc;strokeColor=#d79b00;" parent="1" vertex="1">
          <mxGeometry x="-80" y="40" width="130" height="180" as="geometry">
            <mxRectangle x="80" y="690" width="60" height="30" as="alternateBounds" />
          </mxGeometry>
        </mxCell>
        <mxCell id="w5gB6YBrFvxGbigNmxhe-127" value="char&lt;span style=&quot;white-space: pre;&quot;&gt; &lt;/span&gt;&lt;span style=&quot;white-space: pre;&quot;&gt; &lt;/span&gt;*cmd" style="text;strokeColor=#d6b656;fillColor=#fff2cc;align=left;verticalAlign=middle;spacingLeft=4;spacingRight=4;overflow=hidden;points=[[0,0.5],[1,0.5]];portConstraint=eastwest;rotatable=0;whiteSpace=wrap;html=1;" parent="w5gB6YBrFvxGbigNmxhe-122" vertex="1">
          <mxGeometry y="30" width="130" height="30" as="geometry" />
        </mxCell>
        <mxCell id="w5gB6YBrFvxGbigNmxhe-123" value="bool&lt;span style=&quot;white-space: pre;&quot;&gt; &lt;/span&gt;&lt;span style=&quot;white-space: pre;&quot;&gt; &lt;/span&gt;redir&lt;span style=&quot;white-space: pre;&quot;&gt; &lt;/span&gt;" style="text;strokeColor=#d6b656;fillColor=#fff2cc;align=left;verticalAlign=middle;spacingLeft=4;spacingRight=4;overflow=hidden;points=[[0,0.5],[1,0.5]];portConstraint=eastwest;rotatable=0;whiteSpace=wrap;html=1;" parent="w5gB6YBrFvxGbigNmxhe-122" vertex="1">
          <mxGeometry y="60" width="130" height="30" as="geometry" />
        </mxCell>
        <mxCell id="w5gB6YBrFvxGbigNmxhe-124" value="s_redirIndex&lt;span style=&quot;white-space: pre;&quot;&gt; &lt;/span&gt;*lredir&lt;span style=&quot;white-space: pre;&quot;&gt; &lt;/span&gt;" style="text;strokeColor=#d6b656;fillColor=#fff2cc;align=left;verticalAlign=middle;spacingLeft=4;spacingRight=4;overflow=hidden;points=[[0,0.5],[1,0.5]];portConstraint=eastwest;rotatable=0;whiteSpace=wrap;html=1;" parent="w5gB6YBrFvxGbigNmxhe-122" vertex="1">
          <mxGeometry y="90" width="130" height="30" as="geometry" />
        </mxCell>
        <mxCell id="w5gB6YBrFvxGbigNmxhe-125" value="s_cmd&lt;span style=&quot;white-space: pre;&quot;&gt; &lt;/span&gt;*next" style="text;strokeColor=#d6b656;fillColor=#fff2cc;align=left;verticalAlign=middle;spacingLeft=4;spacingRight=4;overflow=hidden;points=[[0,0.5],[1,0.5]];portConstraint=eastwest;rotatable=0;whiteSpace=wrap;html=1;" parent="w5gB6YBrFvxGbigNmxhe-122" vertex="1">
          <mxGeometry y="120" width="130" height="30" as="geometry" />
        </mxCell>
        <mxCell id="w5gB6YBrFvxGbigNmxhe-126" value="s_cmd&lt;span style=&quot;white-space: pre;&quot;&gt; &lt;/span&gt;*back" style="text;strokeColor=#d6b656;fillColor=#fff2cc;align=left;verticalAlign=middle;spacingLeft=4;spacingRight=4;overflow=hidden;points=[[0,0.5],[1,0.5]];portConstraint=eastwest;rotatable=0;whiteSpace=wrap;html=1;" parent="w5gB6YBrFvxGbigNmxhe-122" vertex="1">
          <mxGeometry y="150" width="130" height="30" as="geometry" />
        </mxCell>
        <mxCell id="w5gB6YBrFvxGbigNmxhe-128" value="&lt;b&gt;t_redirIndex&lt;/b&gt;" style="swimlane;fontStyle=0;childLayout=stackLayout;horizontal=1;startSize=30;horizontalStack=0;resizeParent=1;resizeParentMax=0;resizeLast=0;collapsible=1;marginBottom=0;whiteSpace=wrap;html=1;fillColor=#ffe6cc;strokeColor=#d79b00;" parent="1" vertex="1">
          <mxGeometry x="70" y="40" width="130" height="120" as="geometry">
            <mxRectangle x="80" y="690" width="60" height="30" as="alternateBounds" />
          </mxGeometry>
        </mxCell>
        <mxCell id="w5gB6YBrFvxGbigNmxhe-129" value="int&lt;span style=&quot;white-space: pre;&quot;&gt; &lt;span style=&quot;white-space: pre;&quot;&gt; &lt;/span&gt;&lt;/span&gt;size" style="text;strokeColor=#d6b656;fillColor=#fff2cc;align=left;verticalAlign=middle;spacingLeft=4;spacingRight=4;overflow=hidden;points=[[0,0.5],[1,0.5]];portConstraint=eastwest;rotatable=0;whiteSpace=wrap;html=1;" parent="w5gB6YBrFvxGbigNmxhe-128" vertex="1">
          <mxGeometry y="30" width="130" height="30" as="geometry" />
        </mxCell>
        <mxCell id="w5gB6YBrFvxGbigNmxhe-130" value="s_redir&lt;span style=&quot;white-space: pre;&quot;&gt; &lt;/span&gt;*begin" style="text;strokeColor=#d6b656;fillColor=#fff2cc;align=left;verticalAlign=middle;spacingLeft=4;spacingRight=4;overflow=hidden;points=[[0,0.5],[1,0.5]];portConstraint=eastwest;rotatable=0;whiteSpace=wrap;html=1;" parent="w5gB6YBrFvxGbigNmxhe-128" vertex="1">
          <mxGeometry y="60" width="130" height="30" as="geometry" />
        </mxCell>
        <mxCell id="w5gB6YBrFvxGbigNmxhe-131" value="s_redir&lt;span style=&quot;white-space: pre;&quot;&gt; &lt;/span&gt;*end" style="text;strokeColor=#d6b656;fillColor=#fff2cc;align=left;verticalAlign=middle;spacingLeft=4;spacingRight=4;overflow=hidden;points=[[0,0.5],[1,0.5]];portConstraint=eastwest;rotatable=0;whiteSpace=wrap;html=1;" parent="w5gB6YBrFvxGbigNmxhe-128" vertex="1">
          <mxGeometry y="90" width="130" height="30" as="geometry" />
        </mxCell>
        <mxCell id="w5gB6YBrFvxGbigNmxhe-132" value="&lt;b&gt;t_redir&lt;/b&gt;" style="swimlane;fontStyle=0;childLayout=stackLayout;horizontal=1;startSize=30;horizontalStack=0;resizeParent=1;resizeParentMax=0;resizeLast=0;collapsible=1;marginBottom=0;whiteSpace=wrap;html=1;fillColor=#ffe6cc;strokeColor=#d79b00;" parent="1" vertex="1">
          <mxGeometry x="220" y="40" width="130" height="150" as="geometry">
            <mxRectangle x="80" y="690" width="60" height="30" as="alternateBounds" />
          </mxGeometry>
        </mxCell>
        <mxCell id="w5gB6YBrFvxGbigNmxhe-133" value="int&lt;span style=&quot;white-space: pre;&quot;&gt; &lt;span style=&quot;white-space: pre;&quot;&gt; &lt;/span&gt;&lt;/span&gt;type" style="text;strokeColor=#d6b656;fillColor=#fff2cc;align=left;verticalAlign=middle;spacingLeft=4;spacingRight=4;overflow=hidden;points=[[0,0.5],[1,0.5]];portConstraint=eastwest;rotatable=0;whiteSpace=wrap;html=1;" parent="w5gB6YBrFvxGbigNmxhe-132" vertex="1">
          <mxGeometry y="30" width="130" height="30" as="geometry" />
        </mxCell>
        <mxCell id="w5gB6YBrFvxGbigNmxhe-136" value="char&lt;span style=&quot;white-space: pre;&quot;&gt; &lt;/span&gt;&lt;span style=&quot;white-space: pre;&quot;&gt; &lt;/span&gt;*file" style="text;strokeColor=#d6b656;fillColor=#fff2cc;align=left;verticalAlign=middle;spacingLeft=4;spacingRight=4;overflow=hidden;points=[[0,0.5],[1,0.5]];portConstraint=eastwest;rotatable=0;whiteSpace=wrap;html=1;" parent="w5gB6YBrFvxGbigNmxhe-132" vertex="1">
          <mxGeometry y="60" width="130" height="30" as="geometry" />
        </mxCell>
        <mxCell id="w5gB6YBrFvxGbigNmxhe-134" value="s_redir&lt;span style=&quot;white-space: pre;&quot;&gt; &lt;/span&gt;*next" style="text;strokeColor=#d6b656;fillColor=#fff2cc;align=left;verticalAlign=middle;spacingLeft=4;spacingRight=4;overflow=hidden;points=[[0,0.5],[1,0.5]];portConstraint=eastwest;rotatable=0;whiteSpace=wrap;html=1;" parent="w5gB6YBrFvxGbigNmxhe-132" vertex="1">
          <mxGeometry y="90" width="130" height="30" as="geometry" />
        </mxCell>
        <mxCell id="w5gB6YBrFvxGbigNmxhe-135" value="s_redir&lt;span style=&quot;white-space: pre;&quot;&gt; &lt;/span&gt;*back" style="text;strokeColor=#d6b656;fillColor=#fff2cc;align=left;verticalAlign=middle;spacingLeft=4;spacingRight=4;overflow=hidden;points=[[0,0.5],[1,0.5]];portConstraint=eastwest;rotatable=0;whiteSpace=wrap;html=1;" parent="w5gB6YBrFvxGbigNmxhe-132" vertex="1">
          <mxGeometry y="120" width="130" height="30" as="geometry" />
        </mxCell>
        <mxCell id="w5gB6YBrFvxGbigNmxhe-137" value="&lt;b&gt;t_data&lt;/b&gt;" style="swimlane;fontStyle=0;childLayout=stackLayout;horizontal=1;startSize=30;horizontalStack=0;resizeParent=1;resizeParentMax=0;resizeLast=0;collapsible=1;marginBottom=0;whiteSpace=wrap;html=1;fillColor=#ffe6cc;strokeColor=#d79b00;" parent="1" vertex="1">
          <mxGeometry x="370" y="40" width="130" height="150" as="geometry">
            <mxRectangle x="80" y="690" width="60" height="30" as="alternateBounds" />
          </mxGeometry>
        </mxCell>
        <mxCell id="w5gB6YBrFvxGbigNmxhe-138" value="char&lt;span style=&quot;white-space: pre;&quot;&gt; &lt;span style=&quot;white-space: pre;&quot;&gt; &lt;/span&gt;&lt;/span&gt;**envp" style="text;strokeColor=#d6b656;fillColor=#fff2cc;align=left;verticalAlign=middle;spacingLeft=4;spacingRight=4;overflow=hidden;points=[[0,0.5],[1,0.5]];portConstraint=eastwest;rotatable=0;whiteSpace=wrap;html=1;" parent="w5gB6YBrFvxGbigNmxhe-137" vertex="1">
          <mxGeometry y="30" width="130" height="30" as="geometry" />
        </mxCell>
        <mxCell id="w5gB6YBrFvxGbigNmxhe-139" value="t_envSom *env" style="text;strokeColor=#d6b656;fillColor=#fff2cc;align=left;verticalAlign=middle;spacingLeft=4;spacingRight=4;overflow=hidden;points=[[0,0.5],[1,0.5]];portConstraint=eastwest;rotatable=0;whiteSpace=wrap;html=1;" parent="w5gB6YBrFvxGbigNmxhe-137" vertex="1">
          <mxGeometry y="60" width="130" height="30" as="geometry" />
        </mxCell>
        <mxCell id="w5gB6YBrFvxGbigNmxhe-140" value="t_cmdInd *cmdIndex" style="text;strokeColor=#d6b656;fillColor=#fff2cc;align=left;verticalAlign=middle;spacingLeft=4;spacingRight=4;overflow=hidden;points=[[0,0.5],[1,0.5]];portConstraint=eastwest;rotatable=0;whiteSpace=wrap;html=1;" parent="w5gB6YBrFvxGbigNmxhe-137" vertex="1">
          <mxGeometry y="90" width="130" height="30" as="geometry" />
        </mxCell>
        <mxCell id="w5gB6YBrFvxGbigNmxhe-141" value="char&lt;span style=&quot;white-space: pre;&quot;&gt; &lt;/span&gt;&lt;span style=&quot;white-space: pre;&quot;&gt; &lt;/span&gt;**path_exec" style="text;strokeColor=#d6b656;fillColor=#fff2cc;align=left;verticalAlign=middle;spacingLeft=4;spacingRight=4;overflow=hidden;points=[[0,0.5],[1,0.5]];portConstraint=eastwest;rotatable=0;whiteSpace=wrap;html=1;" parent="w5gB6YBrFvxGbigNmxhe-137" vertex="1">
          <mxGeometry y="120" width="130" height="30" as="geometry" />
        </mxCell>
        <mxCell id="w5gB6YBrFvxGbigNmxhe-144" value="&lt;p style=&quot;margin: 4px 0px 0px; text-align: center;&quot;&gt;&lt;strong&gt;malloc_all&lt;/strong&gt;&lt;/p&gt;&lt;p style=&quot;margin: 4px 0px 0px; text-align: center;&quot;&gt;&lt;strong&gt;(*data)&lt;br&gt;&lt;/strong&gt;&lt;/p&gt;&lt;div align=&quot;left&quot;&gt;&lt;ul&gt;&lt;li&gt;&lt;strong&gt;redirOrNot(data-&amp;gt;cmdIndex)&lt;/strong&gt;&lt;/li&gt;&lt;li&gt;&lt;strong&gt;initRedirOrNot(d-&amp;gt;cmdIndex)&lt;/strong&gt;&lt;/li&gt;&lt;li&gt;&lt;strong&gt;malloc_redir(data);&lt;/strong&gt;&lt;/li&gt;&lt;/ul&gt;&lt;/div&gt;" style="verticalAlign=middle;align=center;overflow=fill;fontSize=12;fontFamily=Helvetica;html=1;rounded=1;fontStyle=1;strokeWidth=3;fillColor=#E6FFCC;" parent="1" vertex="1">
          <mxGeometry x="-110" y="935" width="210" height="120" as="geometry" />
        </mxCell>
        <mxCell id="w5gB6YBrFvxGbigNmxhe-149" value="" style="group" parent="1" vertex="1" connectable="0">
          <mxGeometry x="480" y="220" width="330" height="180" as="geometry" />
        </mxCell>
        <mxCell id="w5gB6YBrFvxGbigNmxhe-145" value="&lt;p style=&quot;margin: 4px 0px 0px; text-align: center;&quot;&gt;&lt;strong&gt;init_data_cmd&lt;/strong&gt;&lt;/p&gt;&lt;p style=&quot;margin: 4px 0px 0px; text-align: center;&quot;&gt;&lt;strong&gt;(*data)&lt;br&gt;&lt;/strong&gt;&lt;/p&gt;&lt;div align=&quot;left&quot;&gt;&lt;ul&gt;&lt;li&gt;&lt;strong&gt;init_cmd()&lt;/strong&gt;&lt;/li&gt;&lt;li&gt;&lt;strong&gt;ft_getpath(data-&amp;gt;env);&lt;/strong&gt;&lt;/li&gt;&lt;/ul&gt;&lt;/div&gt;" style="verticalAlign=middle;align=center;overflow=fill;fontSize=12;fontFamily=Helvetica;html=1;rounded=1;fontStyle=1;strokeWidth=3;fillColor=#E6FFCC;" parent="w5gB6YBrFvxGbigNmxhe-149" vertex="1">
          <mxGeometry y="90" width="210" height="90" as="geometry" />
        </mxCell>
        <mxCell id="w5gB6YBrFvxGbigNmxhe-146" value="&lt;div&gt;-&amp;gt; return from &lt;b&gt;init_cmd&lt;/b&gt; is stored in:&lt;/div&gt;&lt;div&gt;&lt;b&gt;data-&amp;gt;cmdIndex&lt;/b&gt;&lt;/div&gt;&lt;div&gt;&lt;div&gt;-&amp;gt; return from &lt;b&gt;ft_getpath&lt;/b&gt; stored in:&lt;/div&gt;&lt;b&gt;data-&amp;gt;path_exec&lt;/b&gt;&lt;/div&gt;" style="shape=callout;whiteSpace=wrap;html=1;perimeter=calloutPerimeter;position2=0;size=30;position=0.17;" parent="w5gB6YBrFvxGbigNmxhe-149" vertex="1">
          <mxGeometry x="210" width="120" height="120" as="geometry" />
        </mxCell>
        <mxCell id="w5gB6YBrFvxGbigNmxhe-150" value="*init_cmd&#xa;()&#xa;&#xa;malloc t_cmdIndex and return an empty node.&#xa;&#xa;&#xa;" style="align=center;verticalAlign=top;fontStyle=1;strokeWidth=3;fillColor=#FFFFCC;whiteSpace=wrap;" parent="1" vertex="1">
          <mxGeometry x="480" y="440" width="90" height="120" as="geometry" />
        </mxCell>
        <mxCell id="w5gB6YBrFvxGbigNmxhe-152" value="**ft_getpath&#xa;(*env)&#xa;&#xa;searching for the &quot;PATH=&quot; and ft_split it by &#39;:&#39;.&#xa;&#xa;&#xa;" style="align=center;verticalAlign=top;fontStyle=1;strokeWidth=3;fillColor=#FFFFCC;whiteSpace=wrap;" parent="1" vertex="1">
          <mxGeometry x="620" y="440" width="90" height="120" as="geometry" />
        </mxCell>
        <mxCell id="w5gB6YBrFvxGbigNmxhe-153" style="edgeStyle=orthogonalEdgeStyle;rounded=0;orthogonalLoop=1;jettySize=auto;html=1;exitX=0.75;exitY=1;exitDx=0;exitDy=0;entryX=0.5;entryY=0;entryDx=0;entryDy=0;" parent="1" source="w5gB6YBrFvxGbigNmxhe-145" target="w5gB6YBrFvxGbigNmxhe-152" edge="1">
          <mxGeometry relative="1" as="geometry" />
        </mxCell>
        <mxCell id="w5gB6YBrFvxGbigNmxhe-154" style="edgeStyle=orthogonalEdgeStyle;rounded=0;orthogonalLoop=1;jettySize=auto;html=1;exitX=0.5;exitY=1;exitDx=0;exitDy=0;entryX=0.5;entryY=0;entryDx=0;entryDy=0;" parent="1" source="w5gB6YBrFvxGbigNmxhe-145" target="w5gB6YBrFvxGbigNmxhe-150" edge="1">
          <mxGeometry relative="1" as="geometry" />
        </mxCell>
        <mxCell id="tulZz2T8-PFBjVz8LQCf-7" value="" style="curved=1;endArrow=classic;html=1;rounded=0;strokeColor=#0066CC;dashed=1;entryX=0.846;entryY=0.333;entryDx=0;entryDy=0;entryPerimeter=0;" edge="1" parent="1" target="w5gB6YBrFvxGbigNmxhe-141">
          <mxGeometry width="50" height="50" relative="1" as="geometry">
            <mxPoint x="700" y="300" as="sourcePoint" />
            <mxPoint x="480" y="210" as="targetPoint" />
            <Array as="points">
              <mxPoint x="570" y="280" />
              <mxPoint x="600" y="210" />
            </Array>
          </mxGeometry>
        </mxCell>
        <mxCell id="tulZz2T8-PFBjVz8LQCf-8" value="" style="curved=1;endArrow=classic;html=1;rounded=0;strokeColor=#0066CC;dashed=1;entryX=0.923;entryY=0.333;entryDx=0;entryDy=0;entryPerimeter=0;" edge="1" parent="1" target="w5gB6YBrFvxGbigNmxhe-140">
          <mxGeometry width="50" height="50" relative="1" as="geometry">
            <mxPoint x="710" y="260" as="sourcePoint" />
            <mxPoint x="388" y="32" as="targetPoint" />
            <Array as="points">
              <mxPoint x="610" y="260" />
              <mxPoint x="620" y="145" />
            </Array>
          </mxGeometry>
        </mxCell>
        <mxCell id="tulZz2T8-PFBjVz8LQCf-18" value="" style="group" vertex="1" connectable="0" parent="1">
          <mxGeometry x="340" y="565" width="610" height="340" as="geometry" />
        </mxCell>
        <mxCell id="tulZz2T8-PFBjVz8LQCf-10" value="ft_pipeError&#xa;(*line)&#xa;iterating through the *line in search for pipe.&#xa;If found call: splitage()&#xa;not found call: pushback_cmd&#xa;&#xa;&#xa;&#xa;" style="align=center;verticalAlign=top;fontStyle=1;strokeWidth=3;fillColor=#FFFFCC;whiteSpace=wrap;" vertex="1" parent="tulZz2T8-PFBjVz8LQCf-18">
          <mxGeometry y="110" width="200" height="100" as="geometry" />
        </mxCell>
        <mxCell id="tulZz2T8-PFBjVz8LQCf-11" style="edgeStyle=orthogonalEdgeStyle;rounded=0;orthogonalLoop=1;jettySize=auto;html=1;exitX=0;exitY=0.5;exitDx=0;exitDy=0;strokeColor=#CC0000;strokeWidth=2;" edge="1" parent="tulZz2T8-PFBjVz8LQCf-18" source="w5gB6YBrFvxGbigNmxhe-155" target="tulZz2T8-PFBjVz8LQCf-10">
          <mxGeometry relative="1" as="geometry">
            <Array as="points">
              <mxPoint x="140" y="90" />
            </Array>
          </mxGeometry>
        </mxCell>
        <mxCell id="tulZz2T8-PFBjVz8LQCf-12" value="" style="group" vertex="1" connectable="0" parent="tulZz2T8-PFBjVz8LQCf-18">
          <mxGeometry x="123.5" width="423" height="150" as="geometry" />
        </mxCell>
        <mxCell id="w5gB6YBrFvxGbigNmxhe-155" value="&lt;p style=&quot;margin: 4px 0px 0px; text-align: center;&quot;&gt;&lt;strong&gt;splitOrNot&lt;/strong&gt;&lt;/p&gt;&lt;p style=&quot;margin: 4px 0px 0px; text-align: center;&quot;&gt;&lt;strong&gt;(*line, *cmdIndex)&lt;br&gt;&lt;/strong&gt;&lt;/p&gt;&lt;div align=&quot;left&quot;&gt;&lt;ul&gt;&lt;li&gt;&lt;strong&gt;ft_pipeError(line) (if == 1) return;&lt;br&gt;&lt;/strong&gt;&lt;/li&gt;&lt;li&gt;&lt;strong&gt;pushback_cmd(line, cmdIndex) (if == 2)&lt;br&gt;&lt;/strong&gt;&lt;/li&gt;&lt;li&gt;&lt;strong&gt;splitage(line, cmdIndex) (if == 0)&lt;br&gt;&lt;/strong&gt;&lt;/li&gt;&lt;/ul&gt;&lt;/div&gt;" style="verticalAlign=middle;align=center;overflow=fill;fontSize=12;fontFamily=Helvetica;html=1;rounded=1;fontStyle=1;strokeWidth=3;fillColor=#E6FFCC;" parent="tulZz2T8-PFBjVz8LQCf-12" vertex="1">
          <mxGeometry x="123" y="30" width="300" height="120" as="geometry" />
        </mxCell>
        <mxCell id="w5gB6YBrFvxGbigNmxhe-157" value="Here we control the next step based on the return from: &lt;b&gt;ft_pipeError (0, 1, 2)&lt;/b&gt; " style="shape=callout;whiteSpace=wrap;html=1;perimeter=calloutPerimeter;position2=1;base=20;size=30;position=0.67;" parent="tulZz2T8-PFBjVz8LQCf-12" vertex="1">
          <mxGeometry width="120" height="90" as="geometry" />
        </mxCell>
        <mxCell id="tulZz2T8-PFBjVz8LQCf-13" value="pushback_cmd&#xa;(*cmd, *cmdIndex)&#xa;&#xa;malloc t_cmd node and adding it to the end of t_cmd list (cmdIndex-&gt;end)&#xa;&#xa;&#xa;&#xa;" style="align=center;verticalAlign=top;fontStyle=1;strokeWidth=3;fillColor=#FFFFCC;whiteSpace=wrap;" vertex="1" parent="tulZz2T8-PFBjVz8LQCf-18">
          <mxGeometry x="110" y="240" width="200" height="100" as="geometry" />
        </mxCell>
        <mxCell id="tulZz2T8-PFBjVz8LQCf-16" style="edgeStyle=orthogonalEdgeStyle;rounded=0;orthogonalLoop=1;jettySize=auto;html=1;exitX=0;exitY=0.5;exitDx=0;exitDy=0;entryX=1.005;entryY=0.58;entryDx=0;entryDy=0;entryPerimeter=0;strokeColor=#CC0000;strokeWidth=2;" edge="1" parent="tulZz2T8-PFBjVz8LQCf-18" source="tulZz2T8-PFBjVz8LQCf-14" target="tulZz2T8-PFBjVz8LQCf-13">
          <mxGeometry relative="1" as="geometry" />
        </mxCell>
        <mxCell id="tulZz2T8-PFBjVz8LQCf-14" value="&lt;p style=&quot;margin: 4px 0px 0px; text-align: center;&quot;&gt;&lt;strong&gt;splitage&lt;/strong&gt;&lt;/p&gt;&lt;p style=&quot;margin: 4px 0px 0px; text-align: center;&quot;&gt;&lt;strong&gt;(*line, cmdIndex)&lt;br&gt;&lt;/strong&gt;&lt;/p&gt;&lt;div align=&quot;left&quot;&gt;&lt;ul&gt;&lt;li&gt;&lt;strong&gt;ft_split(line, &#39;|&#39;)&lt;br&gt;&lt;/strong&gt;&lt;/li&gt;&lt;li&gt;&lt;strong&gt;pushback_cmd(line[i], cmdIndex)&lt;/strong&gt;&lt;/li&gt;&lt;/ul&gt;&lt;/div&gt;" style="verticalAlign=middle;align=center;overflow=fill;fontSize=12;fontFamily=Helvetica;html=1;rounded=1;fontStyle=1;strokeWidth=3;fillColor=#E6FFCC;" vertex="1" parent="tulZz2T8-PFBjVz8LQCf-18">
          <mxGeometry x="360" y="205" width="250" height="95" as="geometry" />
        </mxCell>
        <mxCell id="tulZz2T8-PFBjVz8LQCf-15" style="edgeStyle=orthogonalEdgeStyle;rounded=0;orthogonalLoop=1;jettySize=auto;html=1;exitX=0;exitY=0.75;exitDx=0;exitDy=0;entryX=0.545;entryY=0.01;entryDx=0;entryDy=0;entryPerimeter=0;strokeColor=#CC0000;strokeWidth=2;" edge="1" parent="tulZz2T8-PFBjVz8LQCf-18" source="w5gB6YBrFvxGbigNmxhe-155" target="tulZz2T8-PFBjVz8LQCf-13">
          <mxGeometry relative="1" as="geometry" />
        </mxCell>
        <mxCell id="tulZz2T8-PFBjVz8LQCf-17" style="edgeStyle=orthogonalEdgeStyle;rounded=0;orthogonalLoop=1;jettySize=auto;html=1;exitX=0.5;exitY=1;exitDx=0;exitDy=0;entryX=0.464;entryY=0.011;entryDx=0;entryDy=0;entryPerimeter=0;strokeColor=#CC0000;strokeWidth=2;" edge="1" parent="tulZz2T8-PFBjVz8LQCf-18" source="w5gB6YBrFvxGbigNmxhe-155" target="tulZz2T8-PFBjVz8LQCf-14">
          <mxGeometry relative="1" as="geometry" />
        </mxCell>
        <mxCell id="tulZz2T8-PFBjVz8LQCf-19" value="&lt;p style=&quot;margin: 4px 0px 0px; text-align: center;&quot;&gt;&lt;strong&gt;exec&lt;/strong&gt;&lt;/p&gt;&lt;p style=&quot;margin: 4px 0px 0px; text-align: center;&quot;&gt;&lt;strong&gt;(*t_cmdIndex, **envp, *t_envSom)&lt;br&gt;&lt;/strong&gt;&lt;/p&gt;&lt;div align=&quot;left&quot;&gt;&lt;ul&gt;&lt;li&gt;&lt;strong&gt;simple_cmd(envSom, cmd-&amp;gt;begin, envp, cmdIndex)&lt;/strong&gt;&lt;/li&gt;&lt;li&gt;&lt;strong&gt;ft_simple_pipe(cmdIndex, envp, envSom)&lt;/strong&gt;&lt;/li&gt;&lt;li&gt;&lt;strong&gt;multi_pipe(cmdIndex, envp, envSom)&lt;/strong&gt;&lt;/li&gt;&lt;/ul&gt;&lt;/div&gt;" style="verticalAlign=middle;align=center;overflow=fill;fontSize=12;fontFamily=Helvetica;html=1;rounded=1;fontStyle=1;strokeWidth=3;fillColor=#E6FFCC;" vertex="1" parent="1">
          <mxGeometry x="-50" y="480" width="340" height="120" as="geometry" />
        </mxCell>
      </root>
    </mxGraphModel>
  </diagram>
</mxfile>
